Genre:Action | Drama | Thriller
Language:English
IMDb:http://www.imdb.com/title/tt1630564/
Source:720p.x264.DTS.-HDChina
Subtitles:Romana


Format : MPEG-4
Format profile : Base Media
Codec ID : isom
File size : 2.36 GiB
Duration : 1h 39mn
Overall bit rate : 3 398 Kbps


Video
Format profile : High@L4.1
Format settings, CABAC : Yes
Format settings, ReFrames : 3 frames
Codec ID : avc1
Codec ID/Info : Advanced Video Coding
Duration : 1h 39mn
Bit rate mode : Variable
Bit rate : 3 000 Kbps
Maximum bit rate : 17.4 Mbps
Width : 1 280 pixels
Height : 544 pixels
Display aspect ratio : 2.35:1
Frame rate mode : Constant
Frame rate : 23.976 fps
Color space : YUV
Chroma subsampling : 4:2:0
Bit depth : 8 bits
Scan type : Progressive
Bits/(Pixel*Frame) : 0.180
Stream size : 2.05 GiB (87%)
Writing library : x264


Audio
ID : 2
Format : AAC
Format/Info : Advanced Audio Codec
Format version : Version 4
Format profile : LC
Format settings, SBR : No
Codec ID : 40
Duration : 1h 39mn
Bit rate mode : Variable
Bit rate : 445 Kbps
Maximum bit rate : 550 Kbps
Channel(s) : 6 channels
Channel positions : Front: L C R, Side: L R, LFE
Sampling rate : 48.0 KHz
Stream size : 317 MiB (13%)


Plot:
A tough undercover cop inadvertently gets involved in a dangerous heroin ring when a young defector of the drug trade leaves his five year-old sister.

Screens:
 
http://www.pix2links.com/images/70210389678942509758.png 
http://www.pix2links.com/images/05419548657319739731.png 
http://www.pix2links.com/images/38490724660279817468.png 
http://www.pix2links.com/images/37599930468800804422.png 
http://www.pix2links.com/images/06300314953761701115.png

Greets:

INK,CRYS,IMAGINE,LKRG,FXG,3Li,FLAWL3SS,TA,iLLUSiON,ViSiON,DTRG SAFCuk009,LU,TheFalcon007,MYSTiC,PrisM,Noir,WBZ,LAP,Rx,Kingdom,SAFCuk009+Fabreezy,HDLiTE,TWiZTED,ExtraTorrentRG.ELEKTRI4KA,MAGNAT,CM8
And to all the other p2p grps past and present.
